<svg width="1024" height="1024" viewBox="0 0 96 96" fill="none" xmlns="http://www.w3.org/2000/svg">
  <defs>
    <linearGradient id="bgGradMinimal" x1="12" y1="8" x2="84" y2="88" gradientUnits="userSpaceOnUse">
      <stop offset="0" stop-color="#111827"/>
      <stop offset="0.52" stop-color="#0B1020"/>
      <stop offset="1" stop-color="#020617"/>
    </linearGradient>
    <linearGradient id="nowlyGradMinimal" x1="18" y1="14" x2="78" y2="86" gradientUnits="userSpaceOnUse">
      <stop offset="0" stop-color="#A855F7"/>
      <stop offset="0.58" stop-color="#6366F1"/>
      <stop offset="1" stop-color="#22D3EE"/>
    </linearGradient>
    <linearGradient id="nGlowGradMinimal" x1="38.8" y1="30.2" x2="56.9" y2="45.6" gradientUnits="userSpaceOnUse">
      <stop offset="0" stop-color="#60A5FA" stop-opacity="0.24"/>
      <stop offset="0.5" stop-color="#6366F1" stop-opacity="0.08"/>
      <stop offset="1" stop-color="#22D3EE" stop-opacity="0.26"/>
    </linearGradient>
  </defs>
  <rect width="96" height="96" rx="18" fill="url(#bgGradMinimal)"/>
  <ellipse cx="48" cy="79.6" rx="17.2" ry="2.6" fill="#3447C8" fill-opacity="0.16"/>
  <ellipse cx="48" cy="79.6" rx="9.9" ry="1.55" fill="#22D3EE" fill-opacity="0.3"/>
  <path d="M48 11.9C32.3 11.9 19.8 23.9 19.8 39.1C19.8 49.6 26 59 33.3 66.9C38.9 73 44.1 78.7 46.8 81.8C47.4 82.6 48.6 82.6 49.2 81.8C51.9 78.7 57.1 73 62.7 66.9C70 59 76.2 49.6 76.2 39.1C76.2 23.9 63.7 11.9 48 11.9Z" fill="url(#nowlyGradMinimal)"/>
  <ellipse cx="34.1" cy="21.4" rx="10.2" ry="7.2" fill="#FFFFFF" fill-opacity="0.07"/>
  <circle cx="38.8" cy="30.2" r="3.2" fill="#60A5FA" fill-opacity="0.14"/>
  <circle cx="38.8" cy="45.6" r="3.2" fill="#60A5FA" fill-opacity="0.14"/>
  <circle cx="56.9" cy="30.2" r="3.2" fill="#22D3EE" fill-opacity="0.16"/>
  <circle cx="56.9" cy="45.6" r="3.2" fill="#22D3EE" fill-opacity="0.16"/>
  <path d="M38.8 30.2V45.6L56.9 30.2V45.6" stroke="url(#nGlowGradMinimal)" stroke-width="7.4" stroke-linecap="round" stroke-linejoin="round"/>
  <path d="M38.8 30.2V45.6L56.9 30.2V45.6" stroke="#F8FAFC" stroke-width="4.1" stroke-linecap="round" stroke-linejoin="round"/>
</svg>
