<svg width="1024" height="1024" viewBox="0 0 96 96" fill="none" xmlns="http://www.w3.org/2000/svg">
  <defs>
    <linearGradient id="bgGradMinimal" x1="12" y1="8" x2="84" y2="88" gradientUnits="userSpaceOnUse">
      <stop offset="0" stop-color="#111827"/>
      <stop offset="0.52" stop-color="#0B1020"/>
      <stop offset="1" stop-color="#020617"/>
    </linearGradient>
    <linearGradient id="nowlyGradMinimal" x1="18" y1="14" x2="78" y2="86" gradientUnits="userSpaceOnUse">
      <stop offset="0" stop-color="#A855F7"/>
      <stop offset="0.58" stop-color="#6366F1"/>
      <stop offset="1" stop-color="#22D3EE"/>
    </linearGradient>
    <linearGradient id="nGlowGradMinimal" x1="38.7" y1="39.8" x2="57.1" y2="56.3" gradientUnits="userSpaceOnUse">
      <stop offset="0" stop-color="#60A5FA" stop-opacity="0.24"/>
      <stop offset="0.5" stop-color="#6366F1" stop-opacity="0.08"/>
      <stop offset="1" stop-color="#22D3EE" stop-opacity="0.26"/>
    </linearGradient>
  </defs>
  <rect width="96" height="96" rx="18" fill="url(#bgGradMinimal)"/>
  <circle cx="48" cy="48" r="28.4" fill="url(#nowlyGradMinimal)"/>
  <ellipse cx="34.4" cy="24.1" rx="10.5" ry="7.4" fill="#FFFFFF" fill-opacity="0.07"/>
  <circle cx="38.7" cy="39.8" r="3.2" fill="#60A5FA" fill-opacity="0.14"/>
  <circle cx="38.7" cy="56.3" r="3.2" fill="#60A5FA" fill-opacity="0.14"/>
  <circle cx="57.1" cy="39.8" r="3.2" fill="#22D3EE" fill-opacity="0.16"/>
  <circle cx="57.1" cy="56.3" r="3.2" fill="#22D3EE" fill-opacity="0.16"/>
  <path d="M38.7 39.8V56.3L57.1 39.8V56.3" stroke="url(#nGlowGradMinimal)" stroke-width="7.4" stroke-linecap="round" stroke-linejoin="round"/>
  <circle cx="38.7" cy="39.8" r="3.6" fill="url(#nGlowGradMinimal)"/>
  <circle cx="38.7" cy="56.3" r="3.8" fill="url(#nGlowGradMinimal)"/>
  <circle cx="57.1" cy="39.8" r="3.8" fill="url(#nGlowGradMinimal)"/>
  <circle cx="57.1" cy="56.3" r="3.6" fill="url(#nGlowGradMinimal)"/>
  <path d="M38.7 39.8V56.3L57.1 39.8V56.3" stroke="#F8FAFC" stroke-width="4.1" stroke-linecap="round" stroke-linejoin="round"/>
  <circle cx="38.7" cy="39.8" r="2.05" fill="#F8FAFC"/>
  <circle cx="38.7" cy="56.3" r="2.15" fill="#F8FAFC"/>
  <circle cx="57.1" cy="39.8" r="2.15" fill="#F8FAFC"/>
  <circle cx="57.1" cy="56.3" r="2.05" fill="#F8FAFC"/>
</svg>
