<svg width="1024" height="1024" viewBox="0 0 96 96" fill="none" xmlns="http://www.w3.org/2000/svg">
  <defs>
    <linearGradient id="bgGrad" x1="12" y1="8" x2="84" y2="88" gradientUnits="userSpaceOnUse">
      <stop offset="0" stop-color="#111827"/>
      <stop offset="0.52" stop-color="#0B1020"/>
      <stop offset="1" stop-color="#020617"/>
    </linearGradient>
    <linearGradient id="nowlyGrad" x1="18" y1="14" x2="78" y2="86" gradientUnits="userSpaceOnUse">
      <stop offset="0" stop-color="#A855F7"/>
      <stop offset="0.58" stop-color="#6366F1"/>
      <stop offset="1" stop-color="#22D3EE"/>
    </linearGradient>
    <linearGradient id="nGlowGrad" x1="38.6" y1="39.4" x2="57.4" y2="56.6" gradientUnits="userSpaceOnUse">
      <stop offset="0" stop-color="#60A5FA" stop-opacity="0.28"/>
      <stop offset="0.5" stop-color="#6366F1" stop-opacity="0.08"/>
      <stop offset="1" stop-color="#22D3EE" stop-opacity="0.3"/>
    </linearGradient>
  </defs>
  <rect width="96" height="96" rx="18" fill="url(#bgGrad)"/>
  <circle cx="48" cy="48" r="29" fill="url(#nowlyGrad)"/>
  <ellipse cx="34.5" cy="24.2" rx="11.2" ry="8.1" fill="#FFFFFF" fill-opacity="0.08"/>
  <circle cx="38.6" cy="39.4" r="3.5" fill="#60A5FA" fill-opacity="0.16"/>
  <circle cx="38.6" cy="56.6" r="3.5" fill="#60A5FA" fill-opacity="0.16"/>
  <circle cx="57.4" cy="39.4" r="3.5" fill="#22D3EE" fill-opacity="0.18"/>
  <circle cx="57.4" cy="56.6" r="3.5" fill="#22D3EE" fill-opacity="0.18"/>
  <path d="M38.6 39.4V56.6L57.4 39.4V56.6" stroke="url(#nGlowGrad)" stroke-width="8.2" stroke-linecap="round" stroke-linejoin="round"/>
  <circle cx="38.6" cy="39.4" r="4" fill="url(#nGlowGrad)"/>
  <circle cx="38.6" cy="56.6" r="4.2" fill="url(#nGlowGrad)"/>
  <circle cx="57.4" cy="39.4" r="4.2" fill="url(#nGlowGrad)"/>
  <circle cx="57.4" cy="56.6" r="4" fill="url(#nGlowGrad)"/>
  <path d="M38.6 39.4V56.6L57.4 39.4V56.6" stroke="#F8FAFC" stroke-width="4.6" stroke-linecap="round" stroke-linejoin="round"/>
  <circle cx="38.6" cy="39.4" r="2.3" fill="#F8FAFC"/>
  <circle cx="38.6" cy="56.6" r="2.45" fill="#F8FAFC"/>
  <circle cx="57.4" cy="39.4" r="2.45" fill="#F8FAFC"/>
  <circle cx="57.4" cy="56.6" r="2.3" fill="#F8FAFC"/>
</svg>
