<svg width="1024" height="1024" viewBox="0 0 96 96" fill="none" xmlns="http://www.w3.org/2000/svg">
  <defs>
    <linearGradient id="bgGradMinimal" x1="12" y1="8" x2="84" y2="88" gradientUnits="userSpaceOnUse">
      <stop offset="0" stop-color="#111827"/>
      <stop offset="0.52" stop-color="#0B1020"/>
      <stop offset="1" stop-color="#020617"/>
    </linearGradient>
    <linearGradient id="nowlyGradMinimal" x1="18" y1="14" x2="78" y2="86" gradientUnits="userSpaceOnUse">
      <stop offset="0" stop-color="#A855F7"/>
      <stop offset="0.58" stop-color="#6366F1"/>
      <stop offset="1" stop-color="#22D3EE"/>
    </linearGradient>
    <linearGradient id="overlapGradMinimal" x1="42.6" y1="29.8" x2="55.6" y2="45.6" gradientUnits="userSpaceOnUse">
      <stop offset="0" stop-color="#6366F1" stop-opacity="0.16"/>
      <stop offset="0.58" stop-color="#6366F1" stop-opacity="0.21"/>
      <stop offset="1" stop-color="#22D3EE" stop-opacity="0.34"/>
    </linearGradient>
    <linearGradient id="monogramGradMinimal" x1="36.8" y1="50.9" x2="59.1" y2="63.6" gradientUnits="userSpaceOnUse">
      <stop offset="0" stop-color="#F8FAFC" stop-opacity="0.2"/>
      <stop offset="0.54" stop-color="#C4B5FD" stop-opacity="0.14"/>
      <stop offset="1" stop-color="#22D3EE" stop-opacity="0.22"/>
    </linearGradient>
    <clipPath id="nowlyOverlapClipMinimal">
      <circle cx="40.5" cy="37.8" r="11.9"/>
    </clipPath>
  </defs>
  <rect width="96" height="96" rx="18" fill="url(#bgGradMinimal)"/>
  <ellipse cx="48" cy="79.6" rx="17.2" ry="2.6" fill="#3447C8" fill-opacity="0.16"/>
  <ellipse cx="48" cy="79.6" rx="9.9" ry="1.55" fill="#22D3EE" fill-opacity="0.3"/>
  <path d="M48 11.9C32.3 11.9 19.8 23.9 19.8 39.1C19.8 49.6 26 59 33.3 66.9C38.9 73 44.1 78.7 46.8 81.8C47.4 82.6 48.6 82.6 49.2 81.8C51.9 78.7 57.1 73 62.7 66.9C70 59 76.2 49.6 76.2 39.1C76.2 23.9 63.7 11.9 48 11.9Z" fill="url(#nowlyGradMinimal)"/>
  <ellipse cx="34.1" cy="21.4" rx="10.2" ry="7.2" fill="#FFFFFF" fill-opacity="0.07"/>
  <circle cx="40.5" cy="37.8" r="11.9" fill="#1D1142" fill-opacity="0.94"/>
  <circle cx="55.5" cy="37.8" r="11.9" fill="#2B3170" fill-opacity="0.82"/>
  <circle cx="55.5" cy="37.8" r="11.9" fill="url(#overlapGradMinimal)" clip-path="url(#nowlyOverlapClipMinimal)"/>
  <path d="M37.1 51.4V63.2L58.8 51.6V63.2" stroke="url(#monogramGradMinimal)" stroke-width="3.7" stroke-linecap="round" stroke-linejoin="round"/>
  <circle cx="48" cy="37.7" r="3.05" fill="#F8FAFC"/>
</svg>
