<svg width="1024" height="1024" viewBox="0 0 96 96" fill="none" xmlns="http://www.w3.org/2000/svg">
  <defs>
    <linearGradient id="bgGrad" x1="12" y1="8" x2="84" y2="88" gradientUnits="userSpaceOnUse">
      <stop offset="0" stop-color="#111827"/>
      <stop offset="0.52" stop-color="#0B1020"/>
      <stop offset="1" stop-color="#020617"/>
    </linearGradient>
    <linearGradient id="nowlyGrad" x1="18" y1="14" x2="78" y2="86" gradientUnits="userSpaceOnUse">
      <stop offset="0" stop-color="#A855F7"/>
      <stop offset="0.58" stop-color="#6366F1"/>
      <stop offset="1" stop-color="#22D3EE"/>
    </linearGradient>
    <linearGradient id="overlapGrad" x1="42.4" y1="29.3" x2="55.9" y2="46.4" gradientUnits="userSpaceOnUse">
      <stop offset="0" stop-color="#6366F1" stop-opacity="0.18"/>
      <stop offset="0.58" stop-color="#6366F1" stop-opacity="0.24"/>
      <stop offset="1" stop-color="#22D3EE" stop-opacity="0.4"/>
    </linearGradient>
    <linearGradient id="monogramGrad" x1="36.4" y1="49.8" x2="59.8" y2="64.6" gradientUnits="userSpaceOnUse">
      <stop offset="0" stop-color="#F8FAFC" stop-opacity="0.24"/>
      <stop offset="0.54" stop-color="#C4B5FD" stop-opacity="0.18"/>
      <stop offset="1" stop-color="#22D3EE" stop-opacity="0.28"/>
    </linearGradient>
    <clipPath id="nowlyOverlapClip">
      <circle cx="40.3" cy="37.8" r="12.3"/>
    </clipPath>
  </defs>
  <rect width="96" height="96" rx="18" fill="url(#bgGrad)"/>
  <ellipse cx="48" cy="79.8" rx="18.4" ry="2.9" fill="#3447C8" fill-opacity="0.18"/>
  <ellipse cx="48" cy="79.8" rx="10.6" ry="1.7" fill="#22D3EE" fill-opacity="0.34"/>
  <path d="M48 11.5C31.7 11.5 18.8 23.8 18.8 39.5C18.8 50.2 25.1 59.8 32.7 68.1C38.5 74.4 44 80.2 46.7 83.3C47.4 84.1 48.6 84.1 49.3 83.3C52 80.2 57.5 74.4 63.3 68.1C70.9 59.8 77.2 50.2 77.2 39.5C77.2 23.8 64.3 11.5 48 11.5Z" fill="url(#nowlyGrad)"/>
  <ellipse cx="34" cy="21.2" rx="10.8" ry="7.6" fill="#FFFFFF" fill-opacity="0.08"/>
  <circle cx="40.3" cy="37.8" r="12.3" fill="#1D1142" fill-opacity="0.94"/>
  <circle cx="55.7" cy="37.8" r="12.3" fill="#2B3170" fill-opacity="0.82"/>
  <circle cx="55.7" cy="37.8" r="12.3" fill="url(#overlapGrad)" clip-path="url(#nowlyOverlapClip)"/>
  <path d="M36.6 50.5V64.2L59.4 50.7V64.2" stroke="url(#monogramGrad)" stroke-width="4.2" stroke-linecap="round" stroke-linejoin="round"/>
  <circle cx="48" cy="37.7" r="3.05" fill="#F8FAFC"/>
</svg>
